<?xml version="1.0" encoding="iso-8859-1"?>
<!-- Generator: Adobe Illustrator 19.0.0, SVG Export Plug-In . SVG Version: 6.00 Build 0)  -->
<svg width="30" height="30" fill="#A80603" version="1.1" id="quad" xmlns="http://www.w3.org/2000/svg" xmlns:xlink="http://www.w3.org/1999/xlink" x="0px" y="0px"
	 viewBox="0 0 512.001 512.001" style="enable-background:new 0 0 512.001 512.001;" xml:space="preserve">
<g>
	<g>
		<path d="M440.678,167.939c-5.243-11.931-17.58-19.121-30.545-17.802l-16.991,1.729L370.404,94.27
			c-2.376-6.018-8.485-9.698-14.918-8.983l-52.592,5.848c-7.868,0.876-13.539,7.963-12.663,15.832
			c0.876,7.868,7.961,13.538,15.832,12.663l41.698-4.636l15.748,39.887l-32.334,3.289c-12.354,1.257-22.662,9.985-25.937,21.962
			l-16.462,60.187h-50.705l-28.292-45.813c-3.762-6.093-10.027-10.207-17.113-11.239l-131.218-19.12
			c-13.237-1.933-25.525,7.236-27.454,20.471c-1.755,12.048,5.685,23.312,17.018,26.689c14.148-5.435,29.497-8.422,45.534-8.422
			c62.307,0,114.354,44.978,125.271,104.246c1.693,9.192,2.347,18.31,2.022,27.621c6.966,0,57.831,0,64.326,0
			c-0.345-9.884,0.419-19.58,2.344-29.297c11.573-58.4,63.188-102.568,124.93-102.568c15.477,0,30.316,2.778,44.05,7.854
			L440.678,167.939z"/>
	</g>
</g>
<g>
	<g>
		<path d="M415.436,233.702c-53.235,0-96.545,43.314-96.545,96.554c0,8.726,1.171,17.183,3.351,25.229
			c-22.605,0-117.681,0-132.488,0c2.181-8.046,3.352-16.503,3.352-25.229c0-53.24-43.318-96.554-96.562-96.554
			C43.309,233.702,0,277.016,0,330.255c0,53.236,43.309,96.547,96.545,96.547c31.446,0,59.426-15.109,77.068-38.445
			c18.787,0,147.782,0,164.771,0c17.639,23.336,45.614,38.445,77.054,38.445c53.245,0,96.564-43.311,96.564-96.547
			C512,277.016,468.682,233.702,415.436,233.702z M96.545,362.227c-17.628,0-31.97-14.343-31.97-31.973
			c0-17.633,14.342-31.979,31.97-31.979c17.639,0,31.989,14.345,31.989,31.979C128.533,347.886,114.184,362.227,96.545,362.227z
			 M415.436,362.227c-17.628,0-31.97-14.343-31.97-31.973c0-17.633,14.342-31.979,31.97-31.979
			c17.639,0,31.989,14.345,31.989,31.979C447.426,347.886,433.075,362.227,415.436,362.227z"/>
	</g>
</g>
<g>
</g>
<g>
</g>
<g>
</g>
<g>
</g>
<g>
</g>
<g>
</g>
<g>
</g>
<g>
</g>
<g>
</g>
<g>
</g>
<g>
</g>
<g>
</g>
<g>
</g>
<g>
</g>
<g>
</g>
</svg>
