<svg fill="#A80603" id="spilja" enable-background="new 0 0 512 512" height="30" viewBox="0 0 512 512" width="30"
     xmlns="http://www.w3.org/2000/svg">
    <g>
        <path d="m497 426.995h-1.144v-120.42c0-8.284-6.716-15-15-15h-37.891l-14.554-32.354v-46.517c0-3.124-.976-6.171-2.79-8.714l-72.353-101.38c-2.101-2.942-5.192-5.027-8.708-5.871l-18.991-4.56-78.469 59.918-13.358 67.626c-1.412 7.146-7.682 12.095-14.7 12.096-.964 0-1.941-.094-2.923-.287-8.127-1.605-13.414-9.495-11.809-17.623l14.458-73.195c.709-3.589 2.705-6.794 5.612-9.015l42.755-32.647-79.085-42.276c-5.005-2.676-11.092-2.297-15.729.979l-75.589 53.42c-3.978 2.812-6.343 7.379-6.343 12.25v83.59l-39.49 44.555c-2.432 2.743-3.774 6.283-3.774 9.949v125.295l-24.417 40.181h-7.708c-8.284 0-15 6.716-15 15s6.716 15 15 15h16.145 97.117v-62.123c0-4.05 1.638-7.928 4.54-10.751l45.732-44.492v-33.172c0-7.04 4.896-13.133 11.771-14.648l90.709-20c2.885-.635 5.899-.405 8.655.664l51.543 20c5.771 2.239 9.574 7.794 9.574 13.984v33.293l21.333 21.333c2.813 2.813 4.394 6.628 4.394 10.606v85.306h104.343 16.144c8.284 0 15-6.716 15-15s-6.716-15-15-15z"/>
        <path d="m346.513 377.902-21.333-21.333c-2.813-2.813-4.394-6.628-4.394-10.606v-29.236l-37.741-14.645-74.511 16.428v27.453c0 4.05-1.638 7.928-4.54 10.751l-45.732 44.492v55.789h188.251z"/>
    </g>
</svg>